# xmcd
#
# Track frame offsets:
#	150
#	19470
#	34945
#	48316
#	65321
#	82759
#	100915
#	115097
#	130791
#	149529
#	171930
#	190684
#	208656
#	225338
#	247117
#	264060
#
# Disc length: 3799 seconds
#
# Revision: 4
# Processed by: cddbd v1.5.2PL0 Copyright (c) Steve Scherf et al.
# Submitted via: EasyCDDAExtractor 15.3.0.1
#
DISCID=d40ed510
DTITLE=Mijares - La Historia
DYEAR=2004
DGENRE=Latin
TTITLE0=Bella
TTITLE1=Poco A Poco
TTITLE2=Me Alimento De Ti (Dueto Con Daniela Romo)
TTITLE3=No Se Murio El Amor
TTITLE4=Uno Entre Mil
TTITLE5=El Breve Espacio
TTITLE6=Baño De Mujeres
TTITLE7=Para Amarnos Mas
TTITLE8=Persona A Persona
TTITLE9=Encadenado
TTITLE10=Que Puedo Hacer Yo Con Tanto Amor
TTITLE11=Corazon Salvaje
TTITLE12=Vive En Mi
TTITLE13=Amor
TTITLE14=Alma Fria
TTITLE15=Estar Sin Ti
EXTD=
EXTT0=
EXTT1=
EXTT2=
EXTT3=
EXTT4=
EXTT5=
EXTT6=
EXTT7=
EXTT8=
EXTT9=
EXTT10=
EXTT11=
EXTT12=
EXTT13=
EXTT14=
EXTT15=
PLAYORDER=
